<svg xmlns="http://www.w3.org/2000/svg" width="1180" height="440" viewBox="0 0 1180 440" role="img" aria-labelledby="title desc">
  <title id="title">GeoSection ratio scan with two-dimensional block arrays</title>
  <desc id="desc">First-level district-count allocations are shown as two-dimensional block arrays so each candidate split is visible and countable.</desc>
  <style>
    .bg{fill:#fbfbf8}
    .panel{fill:#fff;stroke:#2f3a45;stroke-width:1.5}
    .card{fill:#fffdf8;stroke:#c7d0da;stroke-width:1.2}
    .cell{stroke:#ffffff;stroke-width:2}
    .minorBad{fill:#c84f47}
    .majorBad{fill:#f7c8bf}
    .minor{fill:#6ea0db}
    .major{fill:#dbeafe}
    .minorWin{fill:#6fb982}
    .majorWin{fill:#dff3e6}
    .outlineBad{fill:none;stroke:#b6423c;stroke-width:3;stroke-dasharray:8 5}
    .outline{fill:none;stroke:#245b99;stroke-width:3}
    .outlineWin{fill:none;stroke:#25724d;stroke-width:3}
    .label{font:700 16px Arial,sans-serif;fill:#17212b}
    .small{font:13px Arial,sans-serif;fill:#52616b}
    .tiny{font:12px Arial,sans-serif;fill:#52616b}
    .mono{font:12px Consolas,monospace;fill:#17212b}
    .chip{fill:#ffffff;stroke:#9aa7b3;stroke-width:1}
    .chipBad{fill:#fff1ed;stroke:#b6423c;stroke-width:1}
    .chipWin{fill:#eef8f0;stroke:#25724d;stroke-width:1}
    .chipText{font:10px Arial,sans-serif;fill:#17212b;text-anchor:middle}
    .note{fill:#eef8f0;stroke:#25724d;stroke-width:1.5}
    .warn{fill:#fff1ed;stroke:#b6423c;stroke-width:1.5}
  </style>

  <rect class="bg" width="1180" height="440"/>
  <rect class="panel" x="42" y="42" width="1096" height="350" rx="10"/>
  <text class="label" x="76" y="82">First-level ratio scan: choose the root allocation of the recursive tree</text>
  <text class="small" x="76" y="108">Each thumbnail shows the same 14-block state, then the district-count workload left for later recursive splits.</text>

  <!-- 1 / 13 -->
  <g transform="translate(76 142)">
    <rect class="card" width="150" height="188" rx="8"/>
    <text class="label" x="18" y="28">1 / 13</text>
    <text class="tiny" x="18" y="48">one district split off</text>
    <g transform="translate(12 66) scale(0.75)">
      <rect class="cell minorBad" x="0" y="0" width="22" height="22"/>
      <rect class="cell majorBad" x="24" y="0" width="22" height="22"/>
      <rect class="cell majorBad" x="48" y="0" width="22" height="22"/>
      <rect class="cell majorBad" x="72" y="0" width="22" height="22"/>
      <rect class="cell majorBad" x="96" y="0" width="22" height="22"/>
      <rect class="cell majorBad" x="120" y="0" width="22" height="22"/>
      <rect class="cell majorBad" x="144" y="0" width="22" height="22"/>
      <rect class="cell majorBad" x="0" y="24" width="22" height="22"/>
      <rect class="cell majorBad" x="24" y="24" width="22" height="22"/>
      <rect class="cell majorBad" x="48" y="24" width="22" height="22"/>
      <rect class="cell majorBad" x="72" y="24" width="22" height="22"/>
      <rect class="cell majorBad" x="96" y="24" width="22" height="22"/>
      <rect class="cell majorBad" x="120" y="24" width="22" height="22"/>
      <rect class="cell majorBad" x="144" y="24" width="22" height="22"/>
      <rect class="outlineBad" x="-2" y="-2" width="26" height="26" rx="3"/>
    </g>
    <text class="tiny" x="18" y="128">workload: 1 | 1 2 2 2 2 2 2</text>
    <g transform="translate(18 140)">
      <rect class="chipBad" x="0" y="0" width="15" height="16" rx="3"/><text class="chipText" x="7.5" y="12">1</text>
      <rect class="chip" x="20" y="0" width="15" height="16" rx="3"/><text class="chipText" x="27.5" y="12">1</text>
      <rect class="chip" x="38" y="0" width="15" height="16" rx="3"/><text class="chipText" x="45.5" y="12">2</text>
      <rect class="chip" x="56" y="0" width="15" height="16" rx="3"/><text class="chipText" x="63.5" y="12">2</text>
      <rect class="chip" x="74" y="0" width="15" height="16" rx="3"/><text class="chipText" x="81.5" y="12">2</text>
      <rect class="chip" x="92" y="0" width="15" height="16" rx="3"/><text class="chipText" x="99.5" y="12">2</text>
      <rect class="chip" x="110" y="0" width="15" height="16" rx="3"/><text class="chipText" x="117.5" y="12">2</text>
    </g>
    <text class="tiny" x="28" y="174">raw cut may like this</text>
  </g>

  <!-- 2 / 12 -->
  <g transform="translate(252 142)">
    <rect class="card" width="150" height="188" rx="8"/>
    <text class="label" x="18" y="28">2 / 12</text>
    <text class="tiny" x="18" y="48">small first child</text>
    <g transform="translate(12 66) scale(0.75)">
      <rect class="cell minor" x="0" y="0" width="22" height="22"/>
      <rect class="cell minor" x="0" y="24" width="22" height="22"/>
      <rect class="cell major" x="24" y="0" width="22" height="22"/>
      <rect class="cell major" x="48" y="0" width="22" height="22"/>
      <rect class="cell major" x="72" y="0" width="22" height="22"/>
      <rect class="cell major" x="96" y="0" width="22" height="22"/>
      <rect class="cell major" x="120" y="0" width="22" height="22"/>
      <rect class="cell major" x="144" y="0" width="22" height="22"/>
      <rect class="cell major" x="24" y="24" width="22" height="22"/>
      <rect class="cell major" x="48" y="24" width="22" height="22"/>
      <rect class="cell major" x="72" y="24" width="22" height="22"/>
      <rect class="cell major" x="96" y="24" width="22" height="22"/>
      <rect class="cell major" x="120" y="24" width="22" height="22"/>
      <rect class="cell major" x="144" y="24" width="22" height="22"/>
      <rect class="outline" x="-2" y="-2" width="26" height="50" rx="3"/>
    </g>
    <text class="tiny" x="18" y="128">workload: 2 | 1 2 3 2 2 2</text>
    <g transform="translate(18 140)">
      <rect class="chipBad" x="0" y="0" width="15" height="16" rx="3"/><text class="chipText" x="7.5" y="12">2</text>
      <rect class="chip" x="20" y="0" width="15" height="16" rx="3"/><text class="chipText" x="27.5" y="12">1</text>
      <rect class="chip" x="38" y="0" width="15" height="16" rx="3"/><text class="chipText" x="45.5" y="12">2</text>
      <rect class="chip" x="56" y="0" width="15" height="16" rx="3"/><text class="chipText" x="63.5" y="12">3</text>
      <rect class="chip" x="74" y="0" width="15" height="16" rx="3"/><text class="chipText" x="81.5" y="12">2</text>
      <rect class="chip" x="92" y="0" width="15" height="16" rx="3"/><text class="chipText" x="99.5" y="12">2</text>
      <rect class="chip" x="110" y="0" width="15" height="16" rx="3"/><text class="chipText" x="117.5" y="12">2</text>
    </g>
    <text class="tiny" x="18" y="174">compare normalized score</text>
  </g>

  <!-- 3 / 11 -->
  <g transform="translate(428 142)">
    <rect class="card" width="150" height="188" rx="8"/>
    <text class="label" x="18" y="28">3 / 11</text>
    <text class="tiny" x="18" y="48">larger first child</text>
    <g transform="translate(12 66) scale(0.75)">
      <rect class="cell minor" x="0" y="0" width="22" height="22"/>
      <rect class="cell minor" x="24" y="0" width="22" height="22"/>
      <rect class="cell minor" x="0" y="24" width="22" height="22"/>
      <rect class="cell major" x="48" y="0" width="22" height="22"/>
      <rect class="cell major" x="72" y="0" width="22" height="22"/>
      <rect class="cell major" x="96" y="0" width="22" height="22"/>
      <rect class="cell major" x="120" y="0" width="22" height="22"/>
      <rect class="cell major" x="144" y="0" width="22" height="22"/>
      <rect class="cell major" x="24" y="24" width="22" height="22"/>
      <rect class="cell major" x="48" y="24" width="22" height="22"/>
      <rect class="cell major" x="72" y="24" width="22" height="22"/>
      <rect class="cell major" x="96" y="24" width="22" height="22"/>
      <rect class="cell major" x="120" y="24" width="22" height="22"/>
      <rect class="cell major" x="144" y="24" width="22" height="22"/>
      <path class="outline" d="M-2 -2 H48 V24 H24 V48 H-2 Z"/>
    </g>
    <text class="tiny" x="18" y="128">workload: 3 | 2 3 3 2 1</text>
    <g transform="translate(18 140)">
      <rect class="chipBad" x="0" y="0" width="15" height="16" rx="3"/><text class="chipText" x="7.5" y="12">3</text>
      <rect class="chip" x="20" y="0" width="15" height="16" rx="3"/><text class="chipText" x="27.5" y="12">2</text>
      <rect class="chip" x="38" y="0" width="15" height="16" rx="3"/><text class="chipText" x="45.5" y="12">3</text>
      <rect class="chip" x="56" y="0" width="15" height="16" rx="3"/><text class="chipText" x="63.5" y="12">3</text>
      <rect class="chip" x="74" y="0" width="15" height="16" rx="3"/><text class="chipText" x="81.5" y="12">2</text>
      <rect class="chip" x="92" y="0" width="15" height="16" rx="3"/><text class="chipText" x="99.5" y="12">1</text>
    </g>
    <text class="tiny" x="18" y="174">candidate root geometry</text>
  </g>

  <!-- 7 / 7 -->
  <g transform="translate(604 142)">
    <rect class="card" width="150" height="188" rx="8"/>
    <text class="label" x="18" y="28">7 / 7</text>
    <text class="tiny" x="18" y="48">balanced children</text>
    <g transform="translate(12 66) scale(0.75)">
      <rect class="cell minorWin" x="0" y="0" width="22" height="22"/>
      <rect class="cell minorWin" x="24" y="0" width="22" height="22"/>
      <rect class="cell minorWin" x="48" y="0" width="22" height="22"/>
      <rect class="cell minorWin" x="72" y="0" width="22" height="22"/>
      <rect class="cell minorWin" x="96" y="0" width="22" height="22"/>
      <rect class="cell minorWin" x="120" y="0" width="22" height="22"/>
      <rect class="cell minorWin" x="144" y="0" width="22" height="22"/>
      <rect class="cell majorWin" x="0" y="24" width="22" height="22"/>
      <rect class="cell majorWin" x="24" y="24" width="22" height="22"/>
      <rect class="cell majorWin" x="48" y="24" width="22" height="22"/>
      <rect class="cell majorWin" x="72" y="24" width="22" height="22"/>
      <rect class="cell majorWin" x="96" y="24" width="22" height="22"/>
      <rect class="cell majorWin" x="120" y="24" width="22" height="22"/>
      <rect class="cell majorWin" x="144" y="24" width="22" height="22"/>
      <line x1="-2" y1="23" x2="168" y2="23" stroke="#25724d" stroke-width="3"/>
    </g>
    <text class="tiny" x="18" y="128">workload: 7 | 7</text>
    <g transform="translate(18 140)">
      <rect class="chipWin" x="0" y="0" width="34" height="16" rx="3"/><text class="chipText" x="17" y="12">7</text>
      <rect class="chipWin" x="42" y="0" width="34" height="16" rx="3"/><text class="chipText" x="59" y="12">7</text>
    </g>
    <text class="tiny" x="38" y="174">balanced root</text>
  </g>

  <g transform="translate(790 132)">
    <text class="mono" x="0" y="26">score = EC_min / sqrt(min(i,k-i))</text>
    <text class="small" x="0" y="60">Why try different splits?</text>
    <text class="small" x="0" y="84">The first split commits both geography</text>
    <text class="small" x="0" y="106">and the remaining district-count chunks.</text>
    <text class="small" x="0" y="128">The chips under each grid show the</text>
    <text class="small" x="0" y="150">recursive workload implied by the root.</text>

    <g transform="translate(0 184)">
      <text class="tiny" x="0" y="-10">long block state</text>
      <rect class="cell minorWin" x="0" y="0" width="18" height="18"/>
      <rect class="cell minorWin" x="20" y="0" width="18" height="18"/>
      <rect class="cell minorWin" x="40" y="0" width="18" height="18"/>
      <rect class="cell majorWin" x="60" y="0" width="18" height="18"/>
      <rect class="cell majorWin" x="80" y="0" width="18" height="18"/>
      <rect class="cell majorWin" x="100" y="0" width="18" height="18"/>
      <text class="tiny" x="130" y="14">vertical split candidate</text>
    </g>
    <g transform="translate(0 260)">
      <text class="tiny" x="0" y="-10">tall block state</text>
      <rect class="cell minorWin" x="36" y="0" width="18" height="18"/>
      <rect class="cell minorWin" x="36" y="20" width="18" height="18"/>
      <rect class="cell minorWin" x="36" y="40" width="18" height="18"/>
      <rect class="cell majorWin" x="36" y="60" width="18" height="18"/>
      <rect class="cell majorWin" x="36" y="80" width="18" height="18"/>
      <rect class="cell majorWin" x="36" y="100" width="18" height="18"/>
      <text class="tiny" x="130" y="58">horizontal split candidate</text>
    </g>
  </g>

  <rect x="76" y="352" width="1010" height="24" rx="8" fill="#26323d"/>
  <text x="100" y="369" font-family="Arial, sans-serif" font-size="13" fill="#ffffff">Reading rule: GeoSection tries root allocations because the first split determines the recursive district counts inside each child region.</text>
</svg>
